<?xml version="1.0" encoding="UTF-8" standalone="no"?>
<!-- Created with Inkscape (http://www.inkscape.org/) -->

<svg
   xmlns:dc="http://purl.org/dc/elements/1.1/"
   xmlns:cc="http://creativecommons.org/ns#"
   xmlns:rdf="http://www.w3.org/1999/02/22-rdf-syntax-ns#"
   xmlns:svg="http://www.w3.org/2000/svg"
   xmlns="http://www.w3.org/2000/svg"
   xmlns:sodipodi="http://sodipodi.sourceforge.net/DTD/sodipodi-0.dtd"
   xmlns:inkscape="http://www.inkscape.org/namespaces/inkscape"
   width="170"
   height="38"
   id="svg2"
   version="1.1"
   inkscape:version="0.48.4 r9939"
   sodipodi:docname="ldap_pass_logo.svg">
  <defs
     id="defs4" />
  <sodipodi:namedview
     id="base"
     pagecolor="#ffffff"
     bordercolor="#666666"
     borderopacity="1.0"
     inkscape:pageopacity="0.0"
     inkscape:pageshadow="2"
     inkscape:zoom="1.4"
     inkscape:cx="375"
     inkscape:cy="489.64286"
     inkscape:document-units="px"
     inkscape:current-layer="layer1"
     showgrid="false"
     inkscape:window-width="1080"
     inkscape:window-height="1857"
     inkscape:window-x="-8"
     inkscape:window-y="632"
     inkscape:window-maximized="1" />
  <metadata
     id="metadata7">
    <rdf:RDF>
      <cc:Work
         rdf:about="">
        <dc:format>image/svg+xml</dc:format>
        <dc:type
           rdf:resource="http://purl.org/dc/dcmitype/StillImage" />
        <dc:title />
      </cc:Work>
    </rdf:RDF>
  </metadata>
  <g
     inkscape:label="Layer 1"
     inkscape:groupmode="layer"
     id="layer1"
     transform="translate(0,-1014.3622)">
    <g
       style="font-size:40px;font-style:normal;font-weight:normal;line-height:125%;letter-spacing:0px;word-spacing:0px;fill:#000000;fill-opacity:1;stroke:none;font-family:Sans"
       id="flowRoot2985" />
    <g
       transform="translate(-69.142857,854.28572)"
       style="font-size:40px;font-style:normal;font-weight:normal;line-height:125%;letter-spacing:0px;word-spacing:0px;fill:#000000;fill-opacity:1;stroke:none;font-family:Sans"
       id="flowRoot2993">
      <path
         d="m 70.34375,196.90658 0,-35 5,0 0,31.25 8.75,0 0,3.75 z"
         style="font-variant:normal;font-stretch:normal;text-align:start;writing-mode:lr-tb;text-anchor:start;font-family:Oswald;-inkscape-font-specification:Oswald"
         id="path2992" />
      <path
         d="m 86.4375,196.90658 0,-35 7.753906,0 c 3.658841,3e-5 6.240214,0.74873 7.744144,2.24609 1.50388,1.49743 2.25584,4.08206 2.25586,7.75391 l 0,13.75 c -2e-5,3.84115 -0.765,6.67644 -2.29493,8.50586 -1.52996,1.82943 -4.111338,2.74414 -7.744136,2.74414 z m 5,-3.75 2.753906,0 c 0.820302,0 1.523426,-0.0749 2.109375,-0.22461 0.585925,-0.14974 1.061185,-0.42317 1.425781,-0.82031 0.36457,-0.39713 0.651028,-0.77474 0.859375,-1.13281 0.208319,-0.35807 0.354803,-0.91471 0.439454,-1.66993 0.08462,-0.7552 0.133448,-1.37694 0.146484,-1.86523 0.01301,-0.48827 0.01952,-1.24674 0.01953,-2.27539 -1.5e-5,-0.33853 -1.5e-5,-0.59244 0,-0.76172 l 0,-11.25 c -1.5e-5,-0.638 -0.0033,-1.14581 -0.0098,-1.52344 -0.0065,-0.37758 -0.02606,-0.82354 -0.05859,-1.33789 -0.03257,-0.51429 -0.0814,-0.9212 -0.146485,-1.2207 -0.06512,-0.29945 -0.156264,-0.63474 -0.273437,-1.00586 -0.117202,-0.37107 -0.263686,-0.66078 -0.439453,-0.86914 -0.175796,-0.20831 -0.390639,-0.4264 -0.644531,-0.6543 -0.25392,-0.22783 -0.546889,-0.3971 -0.878907,-0.50781 -0.332043,-0.11065 -0.719413,-0.20179 -1.162109,-0.27344 -0.44272,-0.0716 -0.937511,-0.10739 -1.484375,-0.10742 l -2.65625,0 z"
         style="font-variant:normal;font-stretch:normal;text-align:start;writing-mode:lr-tb;text-anchor:start;font-family:Oswald;-inkscape-font-specification:Oswald"
         id="path2994" />
      <path
         d="m 113.85938,184.40658 5,0 -2.5,-15 z m -7.5,12.5 7.5,-35 5,0 7.5,35 -5,0 -1.875,-8.75 -6.25,0 -1.875,8.75 z"
         style="font-variant:normal;font-stretch:normal;text-align:start;writing-mode:lr-tb;text-anchor:start;font-family:Oswald;-inkscape-font-specification:Oswald"
         id="path2996" />
      <path
         d="m 134.17187,176.90658 1.25,0 c 1.13281,2e-5 2.06054,-0.0651 2.78321,-0.19531 0.72264,-0.13019 1.36066,-0.37433 1.91406,-0.73242 0.55337,-0.35806 0.95051,-0.86912 1.19141,-1.53321 0.24087,-0.66404 0.36131,-1.51039 0.36132,-2.53906 -1e-5,-1.24997 -0.0912,-2.26234 -0.27343,-3.03711 -0.18231,-0.77471 -0.51759,-1.40948 -1.00586,-1.9043 -0.4883,-0.49476 -1.11981,-0.83655 -1.89453,-1.02539 -0.77475,-0.18877 -1.80014,-0.28317 -3.07618,-0.2832 l -1.25,0 z m -5,20 0,-35 8.75,0 c 5.83332,3e-5 8.74998,3.33336 8.75,10 -2e-5,2.85158 -0.75197,5.02281 -2.25585,6.51367 -1.50393,1.4909 -3.66864,2.23635 -6.49415,2.23633 l -3.75,0 0,16.25 z"
         style="font-variant:normal;font-stretch:normal;text-align:start;writing-mode:lr-tb;text-anchor:start;font-family:Oswald;-inkscape-font-specification:Oswald"
         id="path2998" />
      <path
         d="m 162.60937,176.90658 1.25,0 c 1.13281,2e-5 2.06054,-0.0651 2.78321,-0.19531 0.72264,-0.13019 1.36066,-0.37433 1.91406,-0.73242 0.55337,-0.35806 0.95051,-0.86912 1.19141,-1.53321 0.24087,-0.66404 0.36131,-1.51039 0.36132,-2.53906 -1e-5,-1.24997 -0.0912,-2.26234 -0.27343,-3.03711 -0.18231,-0.77471 -0.51759,-1.40948 -1.00586,-1.9043 -0.4883,-0.49476 -1.11981,-0.83655 -1.89453,-1.02539 -0.77475,-0.18877 -1.80014,-0.28317 -3.07618,-0.2832 l -1.25,0 z m -5,20 0,-35 8.75,0 c 5.83332,3e-5 8.74998,3.33336 8.75,10 -2e-5,2.85158 -0.75197,5.02281 -2.25585,6.51367 -1.50393,1.4909 -3.66864,2.23635 -6.49415,2.23633 l -3.75,0 0,16.25 z"
         style="font-variant:normal;font-stretch:normal;text-align:start;writing-mode:lr-tb;text-anchor:start;font-family:Oswald;-inkscape-font-specification:Oswald"
         id="path3000" />
      <path
         d="m 183.23437,184.40658 5,0 -2.5,-15 z m -7.5,12.5 7.5,-35 5,0 7.5,35 -5,0 -1.875,-8.75 -6.25,0 -1.875,8.75 z"
         style="font-variant:normal;font-stretch:normal;text-align:start;writing-mode:lr-tb;text-anchor:start;font-family:Oswald;-inkscape-font-specification:Oswald"
         id="path3002" />
      <path
         d="m 207.66797,197.25814 c -3.15105,0 -5.55665,-0.92448 -7.2168,-2.77344 -1.66016,-1.84895 -2.58789,-4.37499 -2.7832,-7.57812 l 5,-1.25 c 0.24739,5.00001 1.91405,7.5 5,7.5 2.49998,0 3.74998,-1.25 3.75,-3.75 -2e-5,-0.74218 -0.10093,-1.42903 -0.30274,-2.06055 -0.20183,-0.6315 -0.51108,-1.21092 -0.92773,-1.73828 -0.41668,-0.52733 -0.79428,-0.95051 -1.13281,-1.26953 -0.33856,-0.319 -0.8008,-0.71288 -1.38672,-1.18164 l -6.25,-5 c -1.14584,-0.89842 -2.06055,-2.041 -2.74414,-3.42773 -0.6836,-1.3867 -1.02539,-2.96547 -1.02539,-4.73633 0,-2.5781 0.80078,-4.62888 2.40234,-6.15235 1.60156,-1.5234 3.72395,-2.28512 6.36719,-2.28515 2.83853,3e-5 5.09438,0.69339 6.76758,2.08008 1.67316,1.38675 2.70506,3.34963 3.0957,5.88867 0.039,0.27346 0.0846,0.65107 0.13672,1.13281 l -5,1.25 c -0.013,-0.22133 -0.0456,-0.55336 -0.0977,-0.99609 -0.22137,-1.58852 -0.71941,-2.8613 -1.49414,-3.81836 -0.77475,-0.957 -1.91082,-1.43552 -3.4082,-1.43555 -1.19793,3e-5 -2.12241,0.33532 -2.77344,1.00586 -0.65105,0.6706 -0.97657,1.60485 -0.97656,2.80273 -1e-5,1.96617 0.83332,3.61331 2.5,4.94141 l 6.25,5 c 3.33331,2.69533 4.99998,5.91798 5,9.66797 -2e-5,2.56511 -0.79104,4.57031 -2.37305,6.01562 -1.58205,1.44532 -3.70769,2.16797 -6.37695,2.16797 z"
         style="font-variant:normal;font-stretch:normal;text-align:start;writing-mode:lr-tb;text-anchor:start;font-family:Oswald;-inkscape-font-specification:Oswald"
         id="path3004" />
      <path
         d="m 229.23047,197.25814 c -3.15105,0 -5.55665,-0.92448 -7.2168,-2.77344 -1.66016,-1.84895 -2.58789,-4.37499 -2.7832,-7.57812 l 5,-1.25 c 0.24739,5.00001 1.91405,7.5 5,7.5 2.49998,0 3.74998,-1.25 3.75,-3.75 -2e-5,-0.74218 -0.10093,-1.42903 -0.30274,-2.06055 -0.20183,-0.6315 -0.51108,-1.21092 -0.92773,-1.73828 -0.41668,-0.52733 -0.79428,-0.95051 -1.13281,-1.26953 -0.33856,-0.319 -0.8008,-0.71288 -1.38672,-1.18164 l -6.25,-5 c -1.14584,-0.89842 -2.06055,-2.041 -2.74414,-3.42773 -0.6836,-1.3867 -1.02539,-2.96547 -1.02539,-4.73633 0,-2.5781 0.80078,-4.62888 2.40234,-6.15235 1.60156,-1.5234 3.72395,-2.28512 6.36719,-2.28515 2.83853,3e-5 5.09438,0.69339 6.76758,2.08008 1.67316,1.38675 2.70506,3.34963 3.0957,5.88867 0.039,0.27346 0.0846,0.65107 0.13672,1.13281 l -5,1.25 c -0.013,-0.22133 -0.0456,-0.55336 -0.0977,-0.99609 -0.22137,-1.58852 -0.71941,-2.8613 -1.49414,-3.81836 -0.77475,-0.957 -1.91082,-1.43552 -3.4082,-1.43555 -1.19793,3e-5 -2.12241,0.33532 -2.77344,1.00586 -0.65105,0.6706 -0.97657,1.60485 -0.97656,2.80273 -1e-5,1.96617 0.83332,3.61331 2.5,4.94141 l 6.25,5 c 3.33331,2.69533 4.99998,5.91798 5,9.66797 -2e-5,2.56511 -0.79104,4.57031 -2.37305,6.01562 -1.58205,1.44532 -3.70769,2.16797 -6.37695,2.16797 z"
         style="font-variant:normal;font-stretch:normal;text-align:start;writing-mode:lr-tb;text-anchor:start;font-family:Oswald;-inkscape-font-specification:Oswald"
         id="path3006" />
    </g>
  </g>
</svg>
